<?xml version="1.0" encoding="UTF-8"?>
<svg version="1.1" xmlns="http://www.w3.org/2000/svg" width="289" height="296">
<path d="M0 0 C1.06541016 -0.00128906 2.13082031 -0.00257812 3.22851562 -0.00390625 C4.33775391 -0.00003906 5.44699219 0.00382813 6.58984375 0.0078125 C7.67201172 0.00394531 8.75417969 0.00007812 9.86914062 -0.00390625 C29.12818957 0.01919999 29.12818957 0.01919999 33.58984375 3.5703125 C36.86615278 8.55548775 37.65295485 14.72708681 37.34765625 20.57421875 C37.33843316 24.84912275 37.5446409 27.30934526 39.52734375 31.1328125 C46.08742889 35.9915562 55.65665554 40.24017106 63.89453125 40.05859375 C66.82849018 39.02691976 68.92062031 37.75427608 71.40234375 35.8828125 C72.26214844 35.25761719 73.12195313 34.63242187 74.0078125 33.98828125 C74.83925781 33.37597656 75.67070312 32.76367188 76.52734375 32.1328125 C80.33262637 29.37961879 83.39371547 27.37573285 88.02734375 26.3828125 C95.4771188 27.97919287 100.12881159 34.6712778 104.8515625 40.2734375 C106.45384477 42.05126118 108.09552079 43.51935862 109.96484375 45.0078125 C110.81046875 45.7090625 111.65609375 46.4103125 112.52734375 47.1328125 C112.52734375 47.7928125 112.52734375 48.4528125 112.52734375 49.1328125 C113.18734375 49.1328125 113.84734375 49.1328125 114.52734375 49.1328125 C117.96339311 52.73647403 120.06682249 55.03585691 120.52734375 60.1328125 C118.3159727 66.86859788 113.01923858 72.34397796 108.41796875 77.5546875 C106.3738594 80.34210933 105.56356718 81.68641147 105.52734375 85.1328125 C106.53461601 87.57450973 107.55831666 89.72238121 108.83984375 92.0078125 C111.38112455 96.64221236 113.23794541 101.01449015 114.52734375 106.1328125 C115.09654541 106.20798096 115.66574707 106.28314941 116.25219727 106.3605957 C118.86625689 106.71180936 121.47793751 107.07844097 124.08984375 107.4453125 C125.43272461 107.62223633 125.43272461 107.62223633 126.80273438 107.80273438 C132.16347402 108.56855432 136.81776001 109.38707063 141.52734375 112.1328125 C144.43987383 116.73834666 144.90287405 120.33168239 144.890625 125.7265625 C144.8911235 126.43631226 144.89162201 127.14606201 144.89213562 127.87731934 C144.88980718 129.3699017 144.88015168 130.8624889 144.86352539 132.35498047 C144.83991107 134.62633762 144.84297633 136.8965197 144.84960938 139.16796875 C144.7918731 154.25112995 144.7918731 154.25112995 140.72314453 159.42871094 C138.2029338 161.38457829 136.52559217 161.88142327 133.39453125 162.3984375 C131.93853516 162.64980469 131.93853516 162.64980469 130.453125 162.90625 C129.44636719 163.06351563 128.43960938 163.22078125 127.40234375 163.3828125 C126.38785156 163.55554688 125.37335938 163.72828125 124.328125 163.90625 C117.01742312 165.1328125 117.01742312 165.1328125 114.52734375 165.1328125 C114.17671875 166.3496875 113.82609375 167.5665625 113.46484375 168.8203125 C111.67185501 174.36627276 108.76441274 179.14819549 105.7578125 184.1171875 C104.27016878 186.98818216 104.27016878 186.98818216 104.984375 189.61328125 C107.02441297 192.94448249 109.43390021 195.78355224 112.02734375 198.6953125 C119.22765508 206.83519934 119.22765508 206.83519934 119.90234375 212.0078125 C119.42870965 215.9547633 118.0069957 218.06971304 115.52734375 221.1328125 C114.86734375 221.1328125 114.20734375 221.1328125 113.52734375 221.1328125 C113.19734375 222.1228125 112.86734375 223.1128125 112.52734375 224.1328125 C110.90544458 225.84307524 109.230731 227.50369389 107.52734375 229.1328125 C106.64175781 230.03 105.75617188 230.9271875 104.84375 231.8515625 C92.62010468 244.19657735 92.62010468 244.19657735 88.15234375 246.1953125 C82.63534764 246.06395545 78.49140776 242.97067842 74.3671875 239.6015625 C73.80644531 239.14692627 73.24570313 238.69229004 72.66796875 238.22387695 C71.548893 237.30163405 70.44520471 236.36033397 69.359375 235.39916992 C66.4959177 233.0210369 64.90293761 232.13454734 61.14453125 232.1171875 C56.95521923 233.29345221 53.14854545 234.85423802 49.21484375 236.6953125 C41.75459424 240.1328125 41.75459424 240.1328125 39.52734375 240.1328125 C39.37700684 241.22952271 39.37700684 241.22952271 39.22363281 242.34838867 C38.7581024 245.67492546 38.26800075 248.99739289 37.77734375 252.3203125 C37.62007812 253.47080078 37.4628125 254.62128906 37.30078125 255.80664062 C37.04941406 257.47436523 37.04941406 257.47436523 36.79296875 259.17578125 C36.64633789 260.19696045 36.49970703 261.21813965 36.34863281 262.27026367 C35.36964543 265.68245959 33.97831866 267.58676156 31.52734375 270.1328125 C27.70752843 271.40608427 24.08066966 271.33431752 20.09765625 271.37109375 C19.27030975 271.3791655 18.44296326 271.38723724 17.59054565 271.39555359 C15.84049566 271.40937677 14.09041891 271.42010682 12.34033203 271.42797852 C9.66907594 271.4452046 6.99905372 271.48910644 4.328125 271.53320312 C2.62631117 271.54332951 0.92448683 271.55184578 -0.77734375 271.55859375 C-1.57332977 271.57610184 -2.3693158 271.59360992 -3.18942261 271.61164856 C-7.07153212 271.59652008 -9.04620178 271.38922389 -12.44897461 269.34326172 C-15.30434565 266.22436567 -15.64736408 262.99267645 -16.16015625 258.9453125 C-16.40091899 257.41664734 -16.64180328 255.88800132 -16.8828125 254.359375 C-17.23083333 251.95766047 -17.53090063 249.57101225 -17.78125 247.15625 C-18.04843278 244.53844789 -18.04843278 244.53844789 -19.47265625 241.1328125 C-22.24985296 239.14196811 -25.261994 238.23306899 -28.47265625 237.1328125 C-30.39597672 236.23019007 -32.31264396 235.31326504 -34.22265625 234.3828125 C-37.88231013 232.60648927 -40.40110188 231.76302028 -44.47265625 232.1328125 C-46.57254999 233.27327759 -46.57254999 233.27327759 -48.46875 234.94140625 C-49.19255859 235.52341797 -49.91636719 236.10542969 -50.66210938 236.70507812 C-51.40396484 237.32060547 -52.14582031 237.93613281 -52.91015625 238.5703125 C-62.37402311 246.41416372 -62.37402311 246.41416372 -67.47265625 246.1328125 C-73.15022369 243.61947391 -77.11860192 239.92254578 -81.41015625 235.5078125 C-81.99861328 234.92257813 -82.58707031 234.33734375 -83.19335938 233.734375 C-87.47265625 229.4004065 -87.47265625 229.4004065 -87.47265625 227.1328125 C-88.79265625 226.4728125 -90.11265625 225.8128125 -91.47265625 225.1328125 C-91.47265625 224.4728125 -91.47265625 223.8128125 -91.47265625 223.1328125 C-92.13265625 223.1328125 -92.79265625 223.1328125 -93.47265625 223.1328125 C-95.015625 221.375 -95.015625 221.375 -96.66015625 219.0078125 C-97.21058594 218.24210938 -97.76101562 217.47640625 -98.328125 216.6875 C-99.89272356 213.19518786 -99.70403861 211.76916908 -98.47265625 208.1328125 C-95.98701241 204.52865234 -93.03074885 201.32794045 -90.1328125 198.0546875 C-85.50826502 192.82099445 -85.50826502 192.82099445 -84.47265625 186.1328125 C-85.68002446 182.73629312 -87.25706793 179.58186708 -88.91015625 176.3828125 C-89.76604651 174.68120601 -90.61906182 172.97814943 -91.46875 171.2734375 C-91.85216553 170.52610352 -92.23558105 169.77876953 -92.63061523 169.00878906 C-93.47265625 167.1328125 -93.47265625 167.1328125 -93.47265625 165.1328125 C-94.13797363 165.06288086 -94.80329102 164.99294922 -95.48876953 164.92089844 C-98.52717651 164.59182145 -101.56214439 164.23756509 -104.59765625 163.8828125 C-105.644375 163.77324219 -106.69109375 163.66367188 -107.76953125 163.55078125 C-114.25798881 162.77052369 -118.74301087 161.86245788 -123.47265625 157.1328125 C-123.65776832 154.55039427 -123.78118396 151.99260075 -123.859375 149.40625 C-123.88489944 148.62520905 -123.91042389 147.84416809 -123.9367218 147.03945923 C-123.98884855 145.38006514 -124.0382609 143.72058395 -124.08520508 142.06103516 C-124.15924463 139.53886713 -124.25009859 137.01767308 -124.34179688 134.49609375 C-124.39036459 132.88284352 -124.43792193 131.2695625 -124.484375 129.65625 C-124.52796394 128.533965 -124.52796394 128.533965 -124.57243347 127.38900757 C-124.70686942 121.70034933 -124.30001916 116.39327182 -120.59375 111.80859375 C-116.68065656 109.70757112 -113.17308596 109.33596292 -108.80151367 108.765625 C-99.61369524 107.84419318 -99.61369524 107.84419318 -91.81738281 103.52197266 C-89.25756444 99.35818992 -88.47453396 94.85962015 -87.47265625 90.1328125 C-86.51287677 88.44266424 -85.52221791 86.76872145 -84.47265625 85.1328125 C-84.35378517 80.61571163 -86.85525962 78.37956278 -89.7109375 75.2265625 C-99.33964998 63.78312594 -99.33964998 63.78312594 -99.47265625 57.1328125 C-96.90577143 52.8108566 -93.92822355 49.3413512 -90.375 45.8046875 C-89.89946182 45.32960754 -89.42392365 44.85452759 -88.93397522 44.36505127 C-87.93711622 43.37119002 -86.93785155 42.37973626 -85.9362793 41.390625 C-84.40544708 39.87815983 -82.88287937 38.35773357 -81.36132812 36.8359375 C-71.7837628 27.30666969 -71.7837628 27.30666969 -67.26171875 26.70703125 C-62.39009893 27.25446069 -59.73416847 29.10547278 -55.84765625 31.9453125 C-54.56439128 32.84849397 -53.28054918 33.75085608 -51.99609375 34.65234375 C-49.93426817 36.10197923 -47.87704389 37.55712042 -45.82421875 39.01953125 C-42.74796331 40.47589803 -41.69511848 40.20388877 -38.47265625 39.1328125 C-35.5681239 38.03245566 -32.70608792 36.84740207 -29.84765625 35.6328125 C-28.33498263 34.99656971 -26.82197488 34.36112055 -25.30859375 33.7265625 C-24.31158447 33.30407227 -24.31158447 33.30407227 -23.29443359 32.87304688 C-21.7113901 32.22981612 -20.09370383 31.67316169 -18.47265625 31.1328125 C-18.29089844 29.43125 -18.29089844 29.43125 -18.10546875 27.6953125 C-17.93648374 26.17444738 -17.76719672 24.6536158 -17.59765625 23.1328125 C-17.51902344 22.38902344 -17.44039063 21.64523438 -17.359375 20.87890625 C-15.89069047 7.88669693 -15.89069047 7.88669693 -12.09765625 3.1953125 C-8.13958805 0.08540177 -4.94625945 0.00583334 0 0 Z M-35.47265625 82.1328125 C-36.17777344 82.72578125 -36.88289063 83.31875 -37.609375 83.9296875 C-50.97212061 96.21606264 -57.76608337 113.33230929 -59.47265625 131.1328125 C-59.54484375 131.86371094 -59.61703125 132.59460938 -59.69140625 133.34765625 C-60.48289563 150.52957149 -53.96661349 166.23387799 -44.47265625 180.1328125 C-41.23117424 179.53438505 -39.42141405 178.48727908 -36.91015625 176.3828125 C-26.61172359 168.40488329 -15.29556619 165.82013824 -2.54296875 165.83203125 C-1.51259491 165.82774612 -0.48222107 165.823461 0.57937622 165.81904602 C2.74936186 165.81332781 4.91936666 165.81278386 7.08935547 165.81713867 C10.38542831 165.8202963 13.68060049 165.79681523 16.9765625 165.77148438 C19.09505096 165.7692107 21.21354181 165.7685082 23.33203125 165.76953125 C24.30526337 165.7603215 25.27849548 165.75111176 26.28121948 165.74162292 C38.31940809 165.82186887 49.94003959 169.9093435 58.96484375 178.0703125 C61.25642931 180.32306859 61.25642931 180.32306859 63.65234375 180.2578125 C71.51007226 175.5431754 76.05332771 162.58001305 78.40234375 154.1328125 C83.2809308 134.37144724 79.71043657 115.00529247 69.40234375 97.5703125 C58.68483749 81.54024926 42.68786111 71.20676029 23.84765625 67.38671875 C2.08392973 63.99344956 -18.38589672 67.6684151 -35.47265625 82.1328125 Z " fill="#FDBC71" transform="translate(132.47265625,15.8671875)"/>
<path d="M0 0 C6.90327478 7.15028462 10.1220515 13.47780344 10.4375 23.375 C10.20876641 33.04852457 7.48688155 39.17981975 0.91796875 46.2109375 C-6.04185123 52.70298954 -14.02037847 55.58726868 -23.51171875 55.30859375 C-32.37135157 54.20983238 -40.31531985 51.02672045 -46 44 C-51.48744128 35.70279666 -54.25665891 27.175117 -52.515625 17.234375 C-49.9989317 7.89464653 -44.66461477 1.7262907 -37 -4 C-24.84675524 -10.6580628 -10.60652734 -8.49244949 0 0 Z " fill="#FDBC71" transform="translate(164,115)"/>
<path d="M0 0 C2 1 2 1 2 1 Z " fill="#FFFF3F" transform="translate(170,89)"/>
<path d="" fill="#FFFF00" transform="translate(0,0)"/>
<path d="" fill="#FFFF00" transform="translate(0,0)"/>
<path d="" fill="#FF7F7F" transform="translate(0,0)"/>
<path d="" fill="#FFFF00" transform="translate(0,0)"/>
<path d="" fill="#FF7F7F" transform="translate(0,0)"/>
<path d="" fill="#FFFF7F" transform="translate(0,0)"/>
<path d="" fill="#FFFF00" transform="translate(0,0)"/>
<path d="" fill="#FFFF00" transform="translate(0,0)"/>
<path d="" fill="#FFFF00" transform="translate(0,0)"/>
<path d="" fill="#FFFF00" transform="translate(0,0)"/>
<path d="" fill="#FFFF00" transform="translate(0,0)"/>
<path d="" fill="#FF7F7F" transform="translate(0,0)"/>
<path d="" fill="#FFFF00" transform="translate(0,0)"/>
<path d="" fill="#FF7F7F" transform="translate(0,0)"/>
<path d="" fill="#FFAA55" transform="translate(0,0)"/>
<path d="" fill="#FFFF00" transform="translate(0,0)"/>
</svg>
